<svg width="19" height="19" viewBox="0 0 19 19" fill="none" xmlns="http://www.w3.org/2000/svg">
<path fill-rule="evenodd" clip-rule="evenodd" d="M8.86667 2.53333V0.633333C8.86667 0.283553 9.15022 0 9.5 0C9.84978 0 10.1333 0.283553 10.1333 0.633333V2.53333C10.1333 2.88311 9.84978 3.16667 9.5 3.16667C9.15022 3.16667 8.86667 2.88311 8.86667 2.53333ZM14.5667 9.5C14.5667 12.2982 12.2982 14.5667 9.5 14.5667C6.70176 14.5667 4.43333 12.2982 4.43333 9.5C4.43333 6.70176 6.70176 4.43333 9.5 4.43333C12.297 4.43639 14.5636 6.70302 14.5667 9.5ZM13.3 9.5C13.3 7.40132 11.5987 5.7 9.5 5.7C7.40132 5.7 5.7 7.40132 5.7 9.5C5.7 11.5987 7.40132 13.3 9.5 13.3C11.5978 13.2978 13.2978 11.5978 13.3 9.5ZM3.98525 4.88142C4.23272 5.12889 4.63395 5.12889 4.88142 4.88142C5.12889 4.63395 5.12889 4.23272 4.88142 3.98525L3.61475 2.71858C3.36728 2.47111 2.96605 2.47111 2.71858 2.71858C2.47111 2.96605 2.47111 3.36728 2.71858 3.61475L3.98525 4.88142ZM3.98525 14.1186L2.71858 15.3853C2.5585 15.5453 2.49598 15.7787 2.55457 15.9973C2.61317 16.216 2.78398 16.3868 3.00266 16.4454C3.22134 16.504 3.45466 16.4415 3.61475 16.2814L4.88142 15.0147C5.0415 14.8547 5.10402 14.6213 5.04543 14.4027C4.98683 14.184 4.81602 14.0132 4.59734 13.9546C4.37866 13.896 4.14534 13.9585 3.98525 14.1186ZM14.5667 5.06667C14.7347 5.0668 14.8959 5.00016 15.0147 4.88142L16.2814 3.61475C16.4415 3.45466 16.504 3.22134 16.4454 3.00266C16.3868 2.78398 16.216 2.61317 15.9973 2.55457C15.7787 2.49598 15.5453 2.5585 15.3853 2.71858L14.1186 3.98525C13.9372 4.16639 13.883 4.43898 13.9811 4.67577C14.0792 4.91256 14.3104 5.06687 14.5667 5.06667ZM15.0147 14.1186C14.7673 13.8711 14.3661 13.8711 14.1186 14.1186C13.8711 14.3661 13.8711 14.7673 14.1186 15.0147L15.3853 16.2814C15.6327 16.5289 16.0339 16.5289 16.2814 16.2814C16.5289 16.0339 16.5289 15.6327 16.2814 15.3853L15.0147 14.1186ZM3.16667 9.5C3.16667 9.15022 2.88311 8.86667 2.53333 8.86667H0.633333C0.283553 8.86667 0 9.15022 0 9.5C0 9.84978 0.283553 10.1333 0.633333 10.1333H2.53333C2.88311 10.1333 3.16667 9.84978 3.16667 9.5ZM9.5 15.8333C9.15022 15.8333 8.86667 16.1169 8.86667 16.4667V18.3667C8.86667 18.7164 9.15022 19 9.5 19C9.84978 19 10.1333 18.7164 10.1333 18.3667V16.4667C10.1333 16.1169 9.84978 15.8333 9.5 15.8333ZM18.3667 8.86667H16.4667C16.1169 8.86667 15.8333 9.15022 15.8333 9.5C15.8333 9.84978 16.1169 10.1333 16.4667 10.1333H18.3667C18.7164 10.1333 19 9.84978 19 9.5C19 9.15022 18.7164 8.86667 18.3667 8.86667Z" fill="white"/>
</svg>
