<svg width="20" height="24" viewBox="0 0 20 24" fill="none" xmlns="http://www.w3.org/2000/svg">
<path fillRule="evenodd" clip-rule="evenodd" d="M19.5925 17.5397L15.28 12H17.5C17.7858 12 18.0468 11.8376 18.173 11.5812C18.2992 11.3248 18.2687 11.019 18.0944 10.7925L10.5944 1.0425C10.4524 0.858007 10.2328 0.749904 10 0.749904C9.7672 0.749904 9.5476 0.858007 9.40563 1.0425L1.90563 10.7925C1.73129 11.019 1.70082 11.3248 1.82703 11.5812C1.95324 11.8376 2.21421 12 2.5 12H4.71625L0.40375 17.5397C0.227498 17.7664 0.196172 18.0739 0.323077 18.3315C0.449983 18.5891 0.712839 18.7516 1 18.75H9.25V22.5C9.25 22.9142 9.58579 23.25 10 23.25C10.4142 23.25 10.75 22.9142 10.75 22.5V18.75H19C19.2865 18.7501 19.548 18.5871 19.674 18.3298C19.8 18.0725 19.7683 17.7659 19.5925 17.5397V17.5397ZM2.53375 17.25L6.84625 11.7103C7.0225 11.4836 7.05383 11.1761 6.92692 10.9185C6.80002 10.6609 6.53716 10.4984 6.25 10.5H4.02344L10 2.73L15.9766 10.5H13.75C13.4637 10.5002 13.2025 10.6634 13.0767 10.9207C12.951 11.1779 12.9827 11.4843 13.1584 11.7103L17.4662 17.25H2.53375Z" fill="white"/>
</svg>
