<svg width="268" height="63" viewBox="0 0 268 63" fill="none" xmlns="http://www.w3.org/2000/svg">
<path d="M1.30201 15V5.2H5.05401C5.64201 5.2 6.16467 5.31667 6.62201 5.55C7.08867 5.774 7.45734 6.096 7.72801 6.516C7.99867 6.936 8.13401 7.44467 8.13401 8.042V8.224C8.13401 8.812 7.99401 9.32067 7.71401 9.75C7.44334 10.17 7.07467 10.492 6.60801 10.716C6.14134 10.94 5.62334 11.052 5.05401 11.052H2.47801V15H1.30201ZM2.47801 9.988H4.92801C5.55334 9.988 6.04801 9.834 6.41201 9.526C6.77601 9.20867 6.95801 8.76533 6.95801 8.196V8.056C6.95801 7.48667 6.77601 7.048 6.41201 6.74C6.05734 6.42267 5.56267 6.264 4.92801 6.264H2.47801V9.988ZM9.75221 15V8.154H10.8302V8.994H11.0262C11.1475 8.69533 11.3342 8.476 11.5862 8.336C11.8382 8.196 12.1695 8.126 12.5802 8.126H13.3922V9.134H12.5102C12.0155 9.134 11.6142 9.274 11.3062 9.554C11.0075 9.82467 10.8582 10.2493 10.8582 10.828V15H9.75221ZM17.9475 15.196C17.2568 15.196 16.6455 15.0513 16.1135 14.762C15.5908 14.4727 15.1801 14.0667 14.8815 13.544C14.5921 13.012 14.4475 12.3867 14.4475 11.668V11.486C14.4475 10.7767 14.5921 10.156 14.8815 9.624C15.1801 9.092 15.5908 8.68133 16.1135 8.392C16.6455 8.10267 17.2568 7.958 17.9475 7.958C18.6381 7.958 19.2448 8.10267 19.7675 8.392C20.2995 8.68133 20.7101 9.092 20.9995 9.624C21.2981 10.156 21.4475 10.7767 21.4475 11.486V11.668C21.4475 12.3867 21.2981 13.012 20.9995 13.544C20.7101 14.0667 20.2995 14.4727 19.7675 14.762C19.2448 15.0513 18.6381 15.196 17.9475 15.196ZM17.9475 14.202C18.6755 14.202 19.2541 13.9733 19.6835 13.516C20.1221 13.0493 20.3415 12.424 20.3415 11.64V11.514C20.3415 10.73 20.1221 10.1093 19.6835 9.652C19.2541 9.18533 18.6755 8.952 17.9475 8.952C17.2288 8.952 16.6501 9.18533 16.2115 9.652C15.7728 10.1093 15.5535 10.73 15.5535 11.514V11.64C15.5535 12.424 15.7728 13.0493 16.2115 13.516C16.6501 13.9733 17.2288 14.202 17.9475 14.202ZM25.6706 15C25.2786 15 24.9753 14.8927 24.7606 14.678C24.5553 14.4633 24.4526 14.1693 24.4526 13.796V9.12H22.3946V8.154H24.4526V5.718H25.5586V8.154H27.7986V9.12H25.5586V13.628C25.5586 13.908 25.694 14.048 25.9646 14.048H27.4906V15H25.6706ZM32.48 15.196C31.7893 15.196 31.1827 15.0513 30.66 14.762C30.1373 14.4633 29.7313 14.048 29.442 13.516C29.1527 12.984 29.008 12.368 29.008 11.668V11.5C29.008 10.7907 29.1527 10.17 29.442 9.638C29.7313 9.106 30.1327 8.69533 30.646 8.406C31.1593 8.10733 31.7473 7.958 32.41 7.958C33.054 7.958 33.6233 8.098 34.118 8.378C34.6127 8.64867 35 9.04067 35.28 9.554C35.56 10.0673 35.7 10.6693 35.7 11.36V11.864H30.114C30.142 12.6013 30.38 13.18 30.828 13.6C31.276 14.0107 31.836 14.216 32.508 14.216C33.096 14.216 33.5487 14.0807 33.866 13.81C34.1833 13.5393 34.426 13.2173 34.594 12.844L35.546 13.306C35.406 13.5953 35.21 13.8847 34.958 14.174C34.7153 14.4633 34.3933 14.706 33.992 14.902C33.6 15.098 33.096 15.196 32.48 15.196ZM30.128 10.954H34.58C34.5427 10.3193 34.3233 9.82467 33.922 9.47C33.53 9.11533 33.026 8.938 32.41 8.938C31.7847 8.938 31.2713 9.11533 30.87 9.47C30.4687 9.82467 30.2213 10.3193 30.128 10.954ZM40.7792 15.196C40.1165 15.196 39.5192 15.056 38.9872 14.776C38.4645 14.4867 38.0492 14.076 37.7412 13.544C37.4425 13.012 37.2932 12.382 37.2932 11.654V11.5C37.2932 10.7627 37.4425 10.1327 37.7412 9.61C38.0492 9.078 38.4645 8.672 38.9872 8.392C39.5192 8.10267 40.1165 7.958 40.7792 7.958C41.4325 7.958 41.9878 8.07933 42.4452 8.322C42.9118 8.56467 43.2758 8.88667 43.5372 9.288C43.8078 9.68933 43.9805 10.1187 44.0552 10.576L42.9772 10.8C42.9305 10.464 42.8185 10.156 42.6412 9.876C42.4732 9.596 42.2352 9.372 41.9272 9.204C41.6192 9.036 41.2412 8.952 40.7932 8.952C40.3358 8.952 39.9252 9.05467 39.5612 9.26C39.2065 9.46533 38.9218 9.75933 38.7072 10.142C38.5018 10.5247 38.3992 10.982 38.3992 11.514V11.64C38.3992 12.172 38.5018 12.6293 38.7072 13.012C38.9218 13.3947 39.2065 13.6887 39.5612 13.894C39.9252 14.0993 40.3358 14.202 40.7932 14.202C41.4745 14.202 41.9925 14.0247 42.3472 13.67C42.7112 13.3153 42.9352 12.8767 43.0192 12.354L44.1112 12.592C44.0085 13.04 43.8218 13.4647 43.5512 13.866C43.2805 14.2673 42.9118 14.5893 42.4452 14.832C41.9878 15.0747 41.4325 15.196 40.7792 15.196ZM49.1464 15.196C48.4837 15.196 47.8864 15.056 47.3544 14.776C46.8317 14.4867 46.4164 14.076 46.1084 13.544C45.8097 13.012 45.6604 12.382 45.6604 11.654V11.5C45.6604 10.7627 45.8097 10.1327 46.1084 9.61C46.4164 9.078 46.8317 8.672 47.3544 8.392C47.8864 8.10267 48.4837 7.958 49.1464 7.958C49.7997 7.958 50.355 8.07933 50.8124 8.322C51.279 8.56467 51.643 8.88667 51.9044 9.288C52.175 9.68933 52.3477 10.1187 52.4224 10.576L51.3444 10.8C51.2977 10.464 51.1857 10.156 51.0084 9.876C50.8404 9.596 50.6024 9.372 50.2944 9.204C49.9864 9.036 49.6084 8.952 49.1604 8.952C48.703 8.952 48.2924 9.05467 47.9284 9.26C47.5737 9.46533 47.289 9.75933 47.0744 10.142C46.869 10.5247 46.7664 10.982 46.7664 11.514V11.64C46.7664 12.172 46.869 12.6293 47.0744 13.012C47.289 13.3947 47.5737 13.6887 47.9284 13.894C48.2924 14.0993 48.703 14.202 49.1604 14.202C49.8417 14.202 50.3597 14.0247 50.7144 13.67C51.0784 13.3153 51.3024 12.8767 51.3864 12.354L52.4784 12.592C52.3757 13.04 52.189 13.4647 51.9184 13.866C51.6477 14.2673 51.279 14.5893 50.8124 14.832C50.355 15.0747 49.7997 15.196 49.1464 15.196ZM54.3635 15V8.154H55.4695V15H54.3635ZM54.9235 7.09C54.6809 7.09 54.4755 7.01067 54.3075 6.852C54.1489 6.69333 54.0695 6.49267 54.0695 6.25C54.0695 5.998 54.1489 5.79267 54.3075 5.634C54.4755 5.47533 54.6809 5.396 54.9235 5.396C55.1662 5.396 55.3669 5.47533 55.5255 5.634C55.6842 5.79267 55.7635 5.998 55.7635 6.25C55.7635 6.49267 55.6842 6.69333 55.5255 6.852C55.3669 7.01067 55.1662 7.09 54.9235 7.09ZM60.9592 15.196C60.2685 15.196 59.6572 15.0513 59.1252 14.762C58.6025 14.4727 58.1918 14.0667 57.8932 13.544C57.6038 13.012 57.4592 12.3867 57.4592 11.668V11.486C57.4592 10.7767 57.6038 10.156 57.8932 9.624C58.1918 9.092 58.6025 8.68133 59.1252 8.392C59.6572 8.10267 60.2685 7.958 60.9592 7.958C61.6498 7.958 62.2565 8.10267 62.7792 8.392C63.3112 8.68133 63.7218 9.092 64.0112 9.624C64.3098 10.156 64.4592 10.7767 64.4592 11.486V11.668C64.4592 12.3867 64.3098 13.012 64.0112 13.544C63.7218 14.0667 63.3112 14.4727 62.7792 14.762C62.2565 15.0513 61.6498 15.196 60.9592 15.196ZM60.9592 14.202C61.6872 14.202 62.2658 13.9733 62.6952 13.516C63.1338 13.0493 63.3532 12.424 63.3532 11.64V11.514C63.3532 10.73 63.1338 10.1093 62.6952 9.652C62.2658 9.18533 61.6872 8.952 60.9592 8.952C60.2405 8.952 59.6618 9.18533 59.2232 9.652C58.7845 10.1093 58.5652 10.73 58.5652 11.514V11.64C58.5652 12.424 58.7845 13.0493 59.2232 13.516C59.6618 13.9733 60.2405 14.202 60.9592 14.202ZM60.2172 7.23L61.2952 5.326H62.6252L61.2812 7.23H60.2172ZM66.4495 15V8.154H67.5275V9.316H67.7235C67.8728 8.98933 68.1248 8.69533 68.4795 8.434C68.8435 8.16333 69.3755 8.028 70.0755 8.028C70.5888 8.028 71.0461 8.13533 71.4475 8.35C71.8581 8.56467 72.1848 8.882 72.4275 9.302C72.6701 9.722 72.7915 10.24 72.7915 10.856V15H71.6855V10.94C71.6855 10.2587 71.5128 9.764 71.1675 9.456C70.8315 9.148 70.3741 8.994 69.7955 8.994C69.1328 8.994 68.5915 9.20867 68.1715 9.638C67.7608 10.0673 67.5555 10.7067 67.5555 11.556V15H66.4495ZM81.7811 15.196C81.1184 15.196 80.5211 15.056 79.9891 14.776C79.4664 14.4867 79.0511 14.076 78.7431 13.544C78.4444 13.012 78.2951 12.382 78.2951 11.654V11.5C78.2951 10.7627 78.4444 10.1327 78.7431 9.61C79.0511 9.078 79.4664 8.672 79.9891 8.392C80.5211 8.10267 81.1184 7.958 81.7811 7.958C82.4344 7.958 82.9898 8.07933 83.4471 8.322C83.9138 8.56467 84.2778 8.88667 84.5391 9.288C84.8098 9.68933 84.9825 10.1187 85.0571 10.576L83.9791 10.8C83.9324 10.464 83.8204 10.156 83.6431 9.876C83.4751 9.596 83.2371 9.372 82.9291 9.204C82.6211 9.036 82.2431 8.952 81.7951 8.952C81.3378 8.952 80.9271 9.05467 80.5631 9.26C80.2084 9.46533 79.9238 9.75933 79.7091 10.142C79.5038 10.5247 79.4011 10.982 79.4011 11.514V11.64C79.4011 12.172 79.5038 12.6293 79.7091 13.012C79.9238 13.3947 80.2084 13.6887 80.5631 13.894C80.9271 14.0993 81.3378 14.202 81.7951 14.202C82.4764 14.202 82.9944 14.0247 83.3491 13.67C83.7131 13.3153 83.9371 12.8767 84.0211 12.354L85.1131 12.592C85.0104 13.04 84.8238 13.4647 84.5531 13.866C84.2825 14.2673 83.9138 14.5893 83.4471 14.832C82.9898 15.0747 82.4344 15.196 81.7811 15.196ZM90.1623 15.196C89.4716 15.196 88.8603 15.0513 88.3283 14.762C87.8056 14.4727 87.395 14.0667 87.0963 13.544C86.807 13.012 86.6623 12.3867 86.6623 11.668V11.486C86.6623 10.7767 86.807 10.156 87.0963 9.624C87.395 9.092 87.8056 8.68133 88.3283 8.392C88.8603 8.10267 89.4716 7.958 90.1623 7.958C90.853 7.958 91.4596 8.10267 91.9823 8.392C92.5143 8.68133 92.925 9.092 93.2143 9.624C93.513 10.156 93.6623 10.7767 93.6623 11.486V11.668C93.6623 12.3867 93.513 13.012 93.2143 13.544C92.925 14.0667 92.5143 14.4727 91.9823 14.762C91.4596 15.0513 90.853 15.196 90.1623 15.196ZM90.1623 14.202C90.8903 14.202 91.469 13.9733 91.8983 13.516C92.337 13.0493 92.5563 12.424 92.5563 11.64V11.514C92.5563 10.73 92.337 10.1093 91.8983 9.652C91.469 9.18533 90.8903 8.952 90.1623 8.952C89.4436 8.952 88.865 9.18533 88.4263 9.652C87.9876 10.1093 87.7683 10.73 87.7683 11.514V11.64C87.7683 12.424 87.9876 13.0493 88.4263 13.516C88.865 13.9733 89.4436 14.202 90.1623 14.202ZM95.6526 15V8.154H96.7306V9.316H96.9266C97.0759 8.98933 97.3279 8.69533 97.6826 8.434C98.0466 8.16333 98.5786 8.028 99.2786 8.028C99.7919 8.028 100.249 8.13533 100.651 8.35C101.061 8.56467 101.388 8.882 101.631 9.302C101.873 9.722 101.995 10.24 101.995 10.856V15H100.889V10.94C100.889 10.2587 100.716 9.764 100.371 9.456C100.035 9.148 99.5773 8.994 98.9986 8.994C98.3359 8.994 97.7946 9.20867 97.3746 9.638C96.9639 10.0673 96.7586 10.7067 96.7586 11.556V15H95.6526ZM106.567 15C106.175 15 105.872 14.8927 105.657 14.678C105.452 14.4633 105.349 14.1693 105.349 13.796V9.12H103.291V8.154H105.349V5.718H106.455V8.154H108.695V9.12H106.455V13.628C106.455 13.908 106.59 14.048 106.861 14.048H108.387V15H106.567ZM110.487 15V8.154H111.565V8.994H111.761C111.882 8.69533 112.069 8.476 112.321 8.336C112.573 8.196 112.904 8.126 113.315 8.126H114.127V9.134H113.245C112.75 9.134 112.349 9.274 112.041 9.554C111.742 9.82467 111.593 10.2493 111.593 10.828V15H110.487ZM117.632 15.196C117.156 15.196 116.722 15.112 116.33 14.944C115.938 14.776 115.63 14.5333 115.406 14.216C115.182 13.8987 115.07 13.5113 115.07 13.054C115.07 12.5873 115.182 12.2047 115.406 11.906C115.63 11.598 115.938 11.3693 116.33 11.22C116.722 11.0613 117.16 10.982 117.646 10.982H119.956V10.478C119.956 9.99267 119.811 9.61 119.522 9.33C119.242 9.05 118.822 8.91 118.262 8.91C117.711 8.91 117.282 9.04533 116.974 9.316C116.666 9.57733 116.456 9.932 116.344 10.38L115.308 10.044C115.42 9.66133 115.597 9.316 115.84 9.008C116.082 8.69067 116.404 8.43867 116.806 8.252C117.216 8.056 117.706 7.958 118.276 7.958C119.153 7.958 119.834 8.18667 120.32 8.644C120.805 9.092 121.048 9.72667 121.048 10.548V13.642C121.048 13.922 121.178 14.062 121.44 14.062H122.07V15H121.104C120.796 15 120.548 14.916 120.362 14.748C120.175 14.5707 120.082 14.3373 120.082 14.048V13.978H119.914C119.811 14.1553 119.671 14.342 119.494 14.538C119.326 14.7247 119.092 14.8787 118.794 15C118.495 15.1307 118.108 15.196 117.632 15.196ZM117.758 14.244C118.411 14.244 118.938 14.0527 119.34 13.67C119.75 13.278 119.956 12.732 119.956 12.032V11.878H117.688C117.249 11.878 116.885 11.976 116.596 12.172C116.316 12.3587 116.176 12.6433 116.176 13.026C116.176 13.4087 116.32 13.7073 116.61 13.922C116.908 14.1367 117.291 14.244 117.758 14.244ZM126.844 11.612V11.416C126.844 10.6973 126.989 10.0813 127.278 9.568C127.567 9.05467 127.959 8.658 128.454 8.378C128.949 8.098 129.49 7.958 130.078 7.958C130.797 7.958 131.347 8.098 131.73 8.378C132.122 8.64867 132.411 8.952 132.598 9.288H132.794V8.154H133.844V16.596C133.844 16.9693 133.741 17.2633 133.536 17.478C133.331 17.6927 133.032 17.8 132.64 17.8H127.992V16.82H132.346C132.626 16.82 132.766 16.68 132.766 16.4V13.796H132.57C132.458 14.0013 132.299 14.202 132.094 14.398C131.889 14.594 131.623 14.7573 131.296 14.888C130.969 15.0093 130.563 15.07 130.078 15.07C129.49 15.07 128.949 14.93 128.454 14.65C127.959 14.37 127.567 13.9733 127.278 13.46C126.989 12.9373 126.844 12.3213 126.844 11.612ZM130.372 14.09C131.081 14.09 131.655 13.866 132.094 13.418C132.542 12.97 132.766 12.354 132.766 11.57V11.458C132.766 10.6647 132.542 10.0487 132.094 9.61C131.655 9.162 131.081 8.938 130.372 8.938C129.672 8.938 129.093 9.162 128.636 9.61C128.188 10.0487 127.964 10.6647 127.964 11.458V11.57C127.964 12.354 128.188 12.97 128.636 13.418C129.093 13.866 129.672 14.09 130.372 14.09ZM136.162 15V8.154H137.24V8.994H137.436C137.558 8.69533 137.744 8.476 137.996 8.336C138.248 8.196 138.58 8.126 138.99 8.126H139.802V9.134H138.92C138.426 9.134 138.024 9.274 137.716 9.554C137.418 9.82467 137.268 10.2493 137.268 10.828V15H136.162ZM141.44 15V8.154H142.546V15H141.44ZM142 7.09C141.757 7.09 141.552 7.01067 141.384 6.852C141.225 6.69333 141.146 6.49267 141.146 6.25C141.146 5.998 141.225 5.79267 141.384 5.634C141.552 5.47533 141.757 5.396 142 5.396C142.242 5.396 142.443 5.47533 142.602 5.634C142.76 5.79267 142.84 5.998 142.84 6.25C142.84 6.49267 142.76 6.69333 142.602 6.852C142.443 7.01067 142.242 7.09 142 7.09ZM148.007 15.196C147.317 15.196 146.71 15.0513 146.187 14.762C145.665 14.4633 145.259 14.048 144.969 13.516C144.68 12.984 144.535 12.368 144.535 11.668V11.5C144.535 10.7907 144.68 10.17 144.969 9.638C145.259 9.106 145.66 8.69533 146.173 8.406C146.687 8.10733 147.275 7.958 147.937 7.958C148.581 7.958 149.151 8.098 149.645 8.378C150.14 8.64867 150.527 9.04067 150.807 9.554C151.087 10.0673 151.227 10.6693 151.227 11.36V11.864H145.641C145.669 12.6013 145.907 13.18 146.355 13.6C146.803 14.0107 147.363 14.216 148.035 14.216C148.623 14.216 149.076 14.0807 149.393 13.81C149.711 13.5393 149.953 13.2173 150.121 12.844L151.073 13.306C150.933 13.5953 150.737 13.8847 150.485 14.174C150.243 14.4633 149.921 14.706 149.519 14.902C149.127 15.098 148.623 15.196 148.007 15.196ZM145.655 10.954H150.107C150.07 10.3193 149.851 9.82467 149.449 9.47C149.057 9.11533 148.553 8.938 147.937 8.938C147.312 8.938 146.799 9.11533 146.397 9.47C145.996 9.82467 145.749 10.3193 145.655 10.954ZM154.213 15V9.12H152.113V8.154H154.213V6.404C154.213 6.03067 154.316 5.73667 154.521 5.522C154.736 5.30733 155.039 5.2 155.431 5.2H157.111V6.152H155.739C155.459 6.152 155.319 6.292 155.319 6.572V8.154H158.721V9.12H155.319V15H154.213ZM158.721 15V8.154H159.827V15H158.721ZM159.267 7.104C159.034 7.104 158.833 7.02467 158.665 6.866C158.507 6.70733 158.427 6.50667 158.427 6.264C158.427 6.012 158.507 5.81133 158.665 5.662C158.833 5.50333 159.034 5.424 159.267 5.424C159.519 5.424 159.725 5.50333 159.883 5.662C160.042 5.81133 160.121 6.012 160.121 6.264C160.121 6.50667 160.042 6.70733 159.883 6.866C159.725 7.02467 159.519 7.104 159.267 7.104ZM162.153 15V8.154H163.231V9.316H163.427C163.576 8.98933 163.828 8.69533 164.183 8.434C164.547 8.16333 165.079 8.028 165.779 8.028C166.292 8.028 166.749 8.13533 167.151 8.35C167.561 8.56467 167.888 8.882 168.131 9.302C168.373 9.722 168.495 10.24 168.495 10.856V15H167.389V10.94C167.389 10.2587 167.216 9.764 166.871 9.456C166.535 9.148 166.077 8.994 165.499 8.994C164.836 8.994 164.295 9.20867 163.875 9.638C163.464 10.0673 163.259 10.7067 163.259 11.556V15H162.153ZM170.403 11.612V11.416C170.403 10.6973 170.547 10.0813 170.837 9.568C171.126 9.05467 171.518 8.658 172.013 8.378C172.507 8.098 173.049 7.958 173.637 7.958C174.355 7.958 174.906 8.098 175.289 8.378C175.681 8.64867 175.97 8.952 176.157 9.288H176.353V8.154H177.403V16.596C177.403 16.9693 177.3 17.2633 177.095 17.478C176.889 17.6927 176.591 17.8 176.199 17.8H171.551V16.82H175.905C176.185 16.82 176.325 16.68 176.325 16.4V13.796H176.129C176.017 14.0013 175.858 14.202 175.653 14.398C175.447 14.594 175.181 14.7573 174.855 14.888C174.528 15.0093 174.122 15.07 173.637 15.07C173.049 15.07 172.507 14.93 172.013 14.65C171.518 14.37 171.126 13.9733 170.837 13.46C170.547 12.9373 170.403 12.3213 170.403 11.612ZM173.931 14.09C174.64 14.09 175.214 13.866 175.653 13.418C176.101 12.97 176.325 12.354 176.325 11.57V11.458C176.325 10.6647 176.101 10.0487 175.653 9.61C175.214 9.162 174.64 8.938 173.931 8.938C173.231 8.938 172.652 9.162 172.195 9.61C171.747 10.0487 171.523 10.6647 171.523 11.458V11.57C171.523 12.354 171.747 12.97 172.195 13.418C172.652 13.866 173.231 14.09 173.931 14.09ZM184.143 17.8V16.82H188.063C188.333 16.82 188.469 16.68 188.469 16.4V13.908H188.273C188.179 14.104 188.035 14.3 187.839 14.496C187.652 14.6827 187.405 14.8367 187.097 14.958C186.789 15.07 186.401 15.126 185.935 15.126C185.44 15.126 184.983 15.0187 184.563 14.804C184.152 14.5893 183.825 14.272 183.583 13.852C183.349 13.432 183.233 12.9187 183.233 12.312V8.154H184.339V12.228C184.339 12.9 184.507 13.39 184.843 13.698C185.188 14.006 185.65 14.16 186.229 14.16C186.882 14.16 187.419 13.9453 187.839 13.516C188.259 13.0867 188.469 12.4473 188.469 11.598V8.154H189.575V16.596C189.575 16.9693 189.467 17.2633 189.253 17.478C189.047 17.6927 188.744 17.8 188.343 17.8H184.143ZM198.103 15.126C197.608 15.126 197.151 15.0187 196.731 14.804C196.32 14.5893 195.993 14.272 195.751 13.852C195.517 13.4227 195.401 12.9047 195.401 12.298V8.154H196.507V12.214C196.507 12.8953 196.675 13.39 197.011 13.698C197.356 14.006 197.818 14.16 198.397 14.16C199.05 14.16 199.587 13.9453 200.007 13.516C200.427 13.0867 200.637 12.4473 200.637 11.598V8.154H201.743V15H200.665V13.838H200.469C200.319 14.1647 200.063 14.4633 199.699 14.734C199.335 14.9953 198.803 15.126 198.103 15.126ZM204.057 15V8.154H205.135V9.316H205.331C205.48 8.98933 205.732 8.69533 206.087 8.434C206.451 8.16333 206.983 8.028 207.683 8.028C208.196 8.028 208.654 8.13533 209.055 8.35C209.466 8.56467 209.792 8.882 210.035 9.302C210.278 9.722 210.399 10.24 210.399 10.856V15H209.293V10.94C209.293 10.2587 209.12 9.764 208.775 9.456C208.439 9.148 207.982 8.994 207.403 8.994C206.74 8.994 206.199 9.20867 205.779 9.638C205.368 10.0673 205.163 10.7067 205.163 11.556V15H204.057ZM4.48001 36.196C3.78934 36.196 3.18267 36.0513 2.66001 35.762C2.13734 35.4633 1.73134 35.048 1.44201 34.516C1.15267 33.984 1.00801 33.368 1.00801 32.668V32.5C1.00801 31.7907 1.15267 31.17 1.44201 30.638C1.73134 30.106 2.13267 29.6953 2.64601 29.406C3.15934 29.1073 3.74734 28.958 4.41001 28.958C5.05401 28.958 5.62334 29.098 6.11801 29.378C6.61267 29.6487 7.00001 30.0407 7.28001 30.554C7.56001 31.0673 7.70001 31.6693 7.70001 32.36V32.864H2.11401C2.14201 33.6013 2.38001 34.18 2.82801 34.6C3.27601 35.0107 3.83601 35.216 4.50801 35.216C5.09601 35.216 5.54867 35.0807 5.86601 34.81C6.18334 34.5393 6.42601 34.2173 6.59401 33.844L7.54601 34.306C7.40601 34.5953 7.21001 34.8847 6.95801 35.174C6.71534 35.4633 6.39334 35.706 5.99201 35.902C5.60001 36.098 5.09601 36.196 4.48001 36.196ZM2.12801 31.954H6.58001C6.54267 31.3193 6.32334 30.8247 5.92201 30.47C5.53001 30.1153 5.02601 29.938 4.41001 29.938C3.78467 29.938 3.27134 30.1153 2.87001 30.47C2.46867 30.8247 2.22134 31.3193 2.12801 31.954ZM9.62916 36V29.154H10.7072V30.316H10.9032C11.0525 29.9893 11.3045 29.6953 11.6592 29.434C12.0232 29.1633 12.5552 29.028 13.2552 29.028C13.7685 29.028 14.2258 29.1353 14.6272 29.35C15.0378 29.5647 15.3645 29.882 15.6072 30.302C15.8498 30.722 15.9712 31.24 15.9712 31.856V36H14.8652V31.94C14.8652 31.2587 14.6925 30.764 14.3472 30.456C14.0112 30.148 13.5538 29.994 12.9752 29.994C12.3125 29.994 11.7712 30.2087 11.3512 30.638C10.9405 31.0673 10.7352 31.7067 10.7352 32.556V36H9.62916ZM20.5437 36C20.1517 36 19.8484 35.8927 19.6337 35.678C19.4284 35.4633 19.3257 35.1693 19.3257 34.796V30.12H17.2677V29.154H19.3257V26.718H20.4317V29.154H22.6717V30.12H20.4317V34.628C20.4317 34.908 20.567 35.048 20.8377 35.048H22.3637V36H20.5437ZM27.3811 36.196C26.6904 36.196 26.0791 36.0513 25.5471 35.762C25.0244 35.4727 24.6137 35.0667 24.3151 34.544C24.0257 34.012 23.8811 33.3867 23.8811 32.668V32.486C23.8811 31.7767 24.0257 31.156 24.3151 30.624C24.6137 30.092 25.0244 29.6813 25.5471 29.392C26.0791 29.1027 26.6904 28.958 27.3811 28.958C28.0717 28.958 28.6784 29.1027 29.2011 29.392C29.7331 29.6813 30.1437 30.092 30.4331 30.624C30.7317 31.156 30.8811 31.7767 30.8811 32.486V32.668C30.8811 33.3867 30.7317 34.012 30.4331 34.544C30.1437 35.0667 29.7331 35.4727 29.2011 35.762C28.6784 36.0513 28.0717 36.196 27.3811 36.196ZM27.3811 35.202C28.1091 35.202 28.6877 34.9733 29.1171 34.516C29.5557 34.0493 29.7751 33.424 29.7751 32.64V32.514C29.7751 31.73 29.5557 31.1093 29.1171 30.652C28.6877 30.1853 28.1091 29.952 27.3811 29.952C26.6624 29.952 26.0837 30.1853 25.6451 30.652C25.2064 31.1093 24.9871 31.73 24.9871 32.514V32.64C24.9871 33.424 25.2064 34.0493 25.6451 34.516C26.0837 34.9733 26.6624 35.202 27.3811 35.202ZM32.8714 36V29.154H33.9494V29.994H34.1454C34.2667 29.6953 34.4534 29.476 34.7054 29.336C34.9574 29.196 35.2887 29.126 35.6994 29.126H36.5114V30.134H35.6294C35.1347 30.134 34.7334 30.274 34.4254 30.554C34.1267 30.8247 33.9774 31.2493 33.9774 31.828V36H32.8714ZM38.1487 36V29.154H39.2267V30.316H39.4227C39.572 29.9893 39.824 29.6953 40.1787 29.434C40.5427 29.1633 41.0747 29.028 41.7747 29.028C42.288 29.028 42.7454 29.1353 43.1467 29.35C43.5574 29.5647 43.884 29.882 44.1267 30.302C44.3694 30.722 44.4907 31.24 44.4907 31.856V36H43.3847V31.94C43.3847 31.2587 43.212 30.764 42.8667 30.456C42.5307 30.148 42.0734 29.994 41.4947 29.994C40.832 29.994 40.2907 30.2087 39.8707 30.638C39.46 31.0673 39.2547 31.7067 39.2547 32.556V36H38.1487ZM49.8986 36.196C49.208 36.196 48.5966 36.0513 48.0646 35.762C47.542 35.4727 47.1313 35.0667 46.8326 34.544C46.5433 34.012 46.3986 33.3867 46.3986 32.668V32.486C46.3986 31.7767 46.5433 31.156 46.8326 30.624C47.1313 30.092 47.542 29.6813 48.0646 29.392C48.5966 29.1027 49.208 28.958 49.8986 28.958C50.5893 28.958 51.196 29.1027 51.7186 29.392C52.2506 29.6813 52.6613 30.092 52.9506 30.624C53.2493 31.156 53.3986 31.7767 53.3986 32.486V32.668C53.3986 33.3867 53.2493 34.012 52.9506 34.544C52.6613 35.0667 52.2506 35.4727 51.7186 35.762C51.196 36.0513 50.5893 36.196 49.8986 36.196ZM49.8986 35.202C50.6266 35.202 51.2053 34.9733 51.6346 34.516C52.0733 34.0493 52.2926 33.424 52.2926 32.64V32.514C52.2926 31.73 52.0733 31.1093 51.6346 30.652C51.2053 30.1853 50.6266 29.952 49.8986 29.952C49.18 29.952 48.6013 30.1853 48.1626 30.652C47.724 31.1093 47.5046 31.73 47.5046 32.514V32.64C47.5046 33.424 47.724 34.0493 48.1626 34.516C48.6013 34.9733 49.18 35.202 49.8986 35.202ZM61.7426 36.196C60.8933 36.196 60.1746 36 59.5866 35.608C59.008 35.216 58.658 34.5953 58.5366 33.746L59.5866 33.508C59.6613 33.956 59.8013 34.3107 60.0066 34.572C60.212 34.824 60.464 35.006 60.7626 35.118C61.0706 35.2207 61.3973 35.272 61.7426 35.272C62.256 35.272 62.662 35.1693 62.9606 34.964C63.2593 34.7587 63.4086 34.4833 63.4086 34.138C63.4086 33.7833 63.264 33.536 62.9746 33.396C62.6946 33.2467 62.3073 33.1253 61.8126 33.032L61.2386 32.934C60.8 32.8593 60.3986 32.7427 60.0346 32.584C59.6706 32.4253 59.3813 32.2107 59.1666 31.94C58.952 31.6693 58.8446 31.3287 58.8446 30.918C58.8446 30.302 59.0826 29.8213 59.5586 29.476C60.0346 29.1307 60.6646 28.958 61.4486 28.958C62.2233 28.958 62.8486 29.1353 63.3246 29.49C63.81 29.8353 64.1226 30.3253 64.2626 30.96L63.2266 31.226C63.1426 30.7313 62.942 30.386 62.6246 30.19C62.3073 29.9847 61.9153 29.882 61.4486 29.882C60.982 29.882 60.6133 29.9707 60.3426 30.148C60.072 30.316 59.9366 30.568 59.9366 30.904C59.9366 31.2307 60.0626 31.4733 60.3146 31.632C60.576 31.7813 60.9213 31.8933 61.3506 31.968L61.9246 32.066C62.41 32.15 62.844 32.2667 63.2266 32.416C63.6186 32.556 63.9266 32.7613 64.1506 33.032C64.384 33.3027 64.5006 33.6573 64.5006 34.096C64.5006 34.768 64.2486 35.286 63.7446 35.65C63.25 36.014 62.5826 36.196 61.7426 36.196ZM69.5034 36.196C68.8128 36.196 68.2061 36.0513 67.6834 35.762C67.1608 35.4633 66.7548 35.048 66.4654 34.516C66.1761 33.984 66.0314 33.368 66.0314 32.668V32.5C66.0314 31.7907 66.1761 31.17 66.4654 30.638C66.7548 30.106 67.1561 29.6953 67.6694 29.406C68.1828 29.1073 68.7708 28.958 69.4334 28.958C70.0774 28.958 70.6468 29.098 71.1414 29.378C71.6361 29.6487 72.0234 30.0407 72.3034 30.554C72.5834 31.0673 72.7234 31.6693 72.7234 32.36V32.864H67.1374C67.1654 33.6013 67.4034 34.18 67.8514 34.6C68.2994 35.0107 68.8594 35.216 69.5314 35.216C70.1194 35.216 70.5721 35.0807 70.8894 34.81C71.2068 34.5393 71.4494 34.2173 71.6174 33.844L72.5694 34.306C72.4294 34.5953 72.2334 34.8847 71.9814 35.174C71.7388 35.4633 71.4168 35.706 71.0154 35.902C70.6234 36.098 70.1194 36.196 69.5034 36.196ZM67.1514 31.954H71.6034C71.5661 31.3193 71.3468 30.8247 70.9454 30.47C70.5534 30.1153 70.0494 29.938 69.4334 29.938C68.8081 29.938 68.2948 30.1153 67.8934 30.47C67.4921 30.8247 67.2448 31.3193 67.1514 31.954ZM74.3166 32.612V32.416C74.3166 31.6973 74.4613 31.0813 74.7506 30.568C75.0399 30.0547 75.4319 29.658 75.9266 29.378C76.4213 29.098 76.9626 28.958 77.5506 28.958C78.2693 28.958 78.8199 29.098 79.2026 29.378C79.5946 29.6487 79.8839 29.952 80.0706 30.288H80.2666V29.154H81.3166V37.596C81.3166 37.9693 81.2139 38.2633 81.0086 38.478C80.8033 38.6927 80.5046 38.8 80.1126 38.8H75.4646V37.82H79.8186C80.0986 37.82 80.2386 37.68 80.2386 37.4V34.796H80.0426C79.9306 35.0013 79.7719 35.202 79.5666 35.398C79.3613 35.594 79.0953 35.7573 78.7686 35.888C78.4419 36.0093 78.0359 36.07 77.5506 36.07C76.9626 36.07 76.4213 35.93 75.9266 35.65C75.4319 35.37 75.0399 34.9733 74.7506 34.46C74.4613 33.9373 74.3166 33.3213 74.3166 32.612ZM77.8446 35.09C78.5539 35.09 79.1279 34.866 79.5666 34.418C80.0146 33.97 80.2386 33.354 80.2386 32.57V32.458C80.2386 31.6647 80.0146 31.0487 79.5666 30.61C79.1279 30.162 78.5539 29.938 77.8446 29.938C77.1446 29.938 76.5659 30.162 76.1086 30.61C75.6606 31.0487 75.4366 31.6647 75.4366 32.458V32.57C75.4366 33.354 75.6606 33.97 76.1086 34.418C76.5659 34.866 77.1446 35.09 77.8446 35.09ZM86.253 36.126C85.7584 36.126 85.301 36.0187 84.881 35.804C84.4704 35.5893 84.1437 35.272 83.901 34.852C83.6677 34.4227 83.551 33.9047 83.551 33.298V29.154H84.657V33.214C84.657 33.8953 84.825 34.39 85.161 34.698C85.5064 35.006 85.9684 35.16 86.547 35.16C87.2004 35.16 87.737 34.9453 88.157 34.516C88.577 34.0867 88.787 33.4473 88.787 32.598V29.154H89.893V36H88.815V34.838H88.619C88.4697 35.1647 88.213 35.4633 87.849 35.734C87.485 35.9953 86.953 36.126 86.253 36.126ZM92.2073 36V29.154H93.2853V29.994H93.4813C93.6026 29.6953 93.7893 29.476 94.0413 29.336C94.2933 29.196 94.6246 29.126 95.0353 29.126H95.8473V30.134H94.9653C94.4706 30.134 94.0693 30.274 93.7613 30.554C93.4626 30.8247 93.3133 31.2493 93.3133 31.828V36H92.2073ZM100.403 36.196C99.7119 36.196 99.1005 36.0513 98.5685 35.762C98.0459 35.4727 97.6352 35.0667 97.3365 34.544C97.0472 34.012 96.9025 33.3867 96.9025 32.668V32.486C96.9025 31.7767 97.0472 31.156 97.3365 30.624C97.6352 30.092 98.0459 29.6813 98.5685 29.392C99.1005 29.1027 99.7119 28.958 100.403 28.958C101.093 28.958 101.7 29.1027 102.223 29.392C102.755 29.6813 103.165 30.092 103.455 30.624C103.753 31.156 103.903 31.7767 103.903 32.486V32.668C103.903 33.3867 103.753 34.012 103.455 34.544C103.165 35.0667 102.755 35.4727 102.223 35.762C101.7 36.0513 101.093 36.196 100.403 36.196ZM100.403 35.202C101.131 35.202 101.709 34.9733 102.139 34.516C102.577 34.0493 102.797 33.424 102.797 32.64V32.514C102.797 31.73 102.577 31.1093 102.139 30.652C101.709 30.1853 101.131 29.952 100.403 29.952C99.6839 29.952 99.1052 30.1853 98.6665 30.652C98.2279 31.1093 98.0085 31.73 98.0085 32.514V32.64C98.0085 33.424 98.2279 34.0493 98.6665 34.516C99.1052 34.9733 99.6839 35.202 100.403 35.202ZM109.489 38.8V29.154H110.567V30.288H110.763C110.94 29.9427 111.225 29.6347 111.617 29.364C112.018 29.0933 112.573 28.958 113.283 28.958C113.871 28.958 114.407 29.1027 114.893 29.392C115.387 29.672 115.779 30.0733 116.069 30.596C116.367 31.1187 116.517 31.7487 116.517 32.486V32.668C116.517 33.396 116.372 34.026 116.083 34.558C115.793 35.09 115.401 35.496 114.907 35.776C114.421 36.056 113.88 36.196 113.283 36.196C112.807 36.196 112.401 36.1307 112.065 36C111.738 35.8787 111.472 35.72 111.267 35.524C111.061 35.328 110.903 35.1273 110.791 34.922H110.595V38.8H109.489ZM112.989 35.216C113.698 35.216 114.272 34.992 114.711 34.544C115.159 34.0867 115.383 33.452 115.383 32.64V32.514C115.383 31.702 115.159 31.072 114.711 30.624C114.272 30.1667 113.698 29.938 112.989 29.938C112.289 29.938 111.71 30.1667 111.253 30.624C110.805 31.072 110.581 31.702 110.581 32.514V32.64C110.581 33.452 110.805 34.0867 111.253 34.544C111.71 34.992 112.289 35.216 112.989 35.216ZM120.598 36.196C120.122 36.196 119.688 36.112 119.296 35.944C118.904 35.776 118.596 35.5333 118.372 35.216C118.148 34.8987 118.036 34.5113 118.036 34.054C118.036 33.5873 118.148 33.2047 118.372 32.906C118.596 32.598 118.904 32.3693 119.296 32.22C119.688 32.0613 120.127 31.982 120.612 31.982H122.922V31.478C122.922 30.9927 122.778 30.61 122.488 30.33C122.208 30.05 121.788 29.91 121.228 29.91C120.678 29.91 120.248 30.0453 119.94 30.316C119.632 30.5773 119.422 30.932 119.31 31.38L118.274 31.044C118.386 30.6613 118.564 30.316 118.806 30.008C119.049 29.6907 119.371 29.4387 119.772 29.252C120.183 29.056 120.673 28.958 121.242 28.958C122.12 28.958 122.801 29.1867 123.286 29.644C123.772 30.092 124.014 30.7267 124.014 31.548V34.642C124.014 34.922 124.145 35.062 124.406 35.062H125.036V36H124.07C123.762 36 123.515 35.916 123.328 35.748C123.142 35.5707 123.048 35.3373 123.048 35.048V34.978H122.88C122.778 35.1553 122.638 35.342 122.46 35.538C122.292 35.7247 122.059 35.8787 121.76 36C121.462 36.1307 121.074 36.196 120.598 36.196ZM120.724 35.244C121.378 35.244 121.905 35.0527 122.306 34.67C122.717 34.278 122.922 33.732 122.922 33.032V32.878H120.654C120.216 32.878 119.852 32.976 119.562 33.172C119.282 33.3587 119.142 33.6433 119.142 34.026C119.142 34.4087 119.287 34.7073 119.576 34.922C119.875 35.1367 120.258 35.244 120.724 35.244ZM126.551 36V29.154H127.629V29.994H127.825C127.946 29.6953 128.133 29.476 128.385 29.336C128.637 29.196 128.968 29.126 129.379 29.126H130.191V30.134H129.309C128.814 30.134 128.413 30.274 128.105 30.554C127.806 30.8247 127.657 31.2493 127.657 31.828V36H126.551ZM133.696 36.196C133.22 36.196 132.786 36.112 132.394 35.944C132.002 35.776 131.694 35.5333 131.47 35.216C131.246 34.8987 131.134 34.5113 131.134 34.054C131.134 33.5873 131.246 33.2047 131.47 32.906C131.694 32.598 132.002 32.3693 132.394 32.22C132.786 32.0613 133.225 31.982 133.71 31.982H136.02V31.478C136.02 30.9927 135.875 30.61 135.586 30.33C135.306 30.05 134.886 29.91 134.326 29.91C133.775 29.91 133.346 30.0453 133.038 30.316C132.73 30.5773 132.52 30.932 132.408 31.38L131.372 31.044C131.484 30.6613 131.661 30.316 131.904 30.008C132.147 29.6907 132.469 29.4387 132.87 29.252C133.281 29.056 133.771 28.958 134.34 28.958C135.217 28.958 135.899 29.1867 136.384 29.644C136.869 30.092 137.112 30.7267 137.112 31.548V34.642C137.112 34.922 137.243 35.062 137.504 35.062H138.134V36H137.168C136.86 36 136.613 35.916 136.426 35.748C136.239 35.5707 136.146 35.3373 136.146 35.048V34.978H135.978C135.875 35.1553 135.735 35.342 135.558 35.538C135.39 35.7247 135.157 35.8787 134.858 36C134.559 36.1307 134.172 36.196 133.696 36.196ZM133.822 35.244C134.475 35.244 135.003 35.0527 135.404 34.67C135.815 34.278 136.02 33.732 136.02 33.032V32.878H133.752C133.313 32.878 132.949 32.976 132.66 33.172C132.38 33.3587 132.24 33.6433 132.24 34.026C132.24 34.4087 132.385 34.7073 132.674 34.922C132.973 35.1367 133.355 35.244 133.822 35.244ZM145.764 36C145.372 36 145.069 35.8927 144.854 35.678C144.649 35.4633 144.546 35.1693 144.546 34.796V30.12H142.488V29.154H144.546V26.718H145.652V29.154H147.892V30.12H145.652V34.628C145.652 34.908 145.788 35.048 146.058 35.048H147.584V36H145.764ZM152.602 36.196C151.911 36.196 151.3 36.0513 150.768 35.762C150.245 35.4727 149.834 35.0667 149.536 34.544C149.246 34.012 149.102 33.3867 149.102 32.668V32.486C149.102 31.7767 149.246 31.156 149.536 30.624C149.834 30.092 150.245 29.6813 150.768 29.392C151.3 29.1027 151.911 28.958 152.602 28.958C153.292 28.958 153.899 29.1027 154.422 29.392C154.954 29.6813 155.364 30.092 155.654 30.624C155.952 31.156 156.102 31.7767 156.102 32.486V32.668C156.102 33.3867 155.952 34.012 155.654 34.544C155.364 35.0667 154.954 35.4727 154.422 35.762C153.899 36.0513 153.292 36.196 152.602 36.196ZM152.602 35.202C153.33 35.202 153.908 34.9733 154.338 34.516C154.776 34.0493 154.996 33.424 154.996 32.64V32.514C154.996 31.73 154.776 31.1093 154.338 30.652C153.908 30.1853 153.33 29.952 152.602 29.952C151.883 29.952 151.304 30.1853 150.866 30.652C150.427 31.1093 150.208 31.73 150.208 32.514V32.64C150.208 33.424 150.427 34.0493 150.866 34.516C151.304 34.9733 151.883 35.202 152.602 35.202ZM160.99 36.196C160.402 36.196 159.861 36.056 159.366 35.776C158.871 35.496 158.479 35.09 158.19 34.558C157.901 34.026 157.756 33.396 157.756 32.668V32.486C157.756 31.758 157.901 31.1327 158.19 30.61C158.479 30.078 158.867 29.672 159.352 29.392C159.847 29.1027 160.393 28.958 160.99 28.958C161.466 28.958 161.867 29.0233 162.194 29.154C162.53 29.2753 162.801 29.434 163.006 29.63C163.211 29.8167 163.37 30.0173 163.482 30.232H163.678V26.2H164.784V36H163.706V34.866H163.51C163.323 35.2113 163.034 35.5193 162.642 35.79C162.25 36.0607 161.699 36.196 160.99 36.196ZM161.284 35.216C161.993 35.216 162.567 34.992 163.006 34.544C163.454 34.0867 163.678 33.452 163.678 32.64V32.514C163.678 31.702 163.454 31.072 163.006 30.624C162.567 30.1667 161.993 29.938 161.284 29.938C160.584 29.938 160.005 30.1667 159.548 30.624C159.1 31.072 158.876 31.702 158.876 32.514V32.64C158.876 33.452 159.1 34.0867 159.548 34.544C160.005 34.992 160.584 35.216 161.284 35.216ZM170.266 36.196C169.575 36.196 168.964 36.0513 168.432 35.762C167.909 35.4727 167.498 35.0667 167.2 34.544C166.91 34.012 166.766 33.3867 166.766 32.668V32.486C166.766 31.7767 166.91 31.156 167.2 30.624C167.498 30.092 167.909 29.6813 168.432 29.392C168.964 29.1027 169.575 28.958 170.266 28.958C170.956 28.958 171.563 29.1027 172.086 29.392C172.618 29.6813 173.028 30.092 173.318 30.624C173.616 31.156 173.766 31.7767 173.766 32.486V32.668C173.766 33.3867 173.616 34.012 173.318 34.544C173.028 35.0667 172.618 35.4727 172.086 35.762C171.563 36.0513 170.956 36.196 170.266 36.196ZM170.266 35.202C170.994 35.202 171.572 34.9733 172.002 34.516C172.44 34.0493 172.66 33.424 172.66 32.64V32.514C172.66 31.73 172.44 31.1093 172.002 30.652C171.572 30.1853 170.994 29.952 170.266 29.952C169.547 29.952 168.968 30.1853 168.53 30.652C168.091 31.1093 167.872 31.73 167.872 32.514V32.64C167.872 33.424 168.091 34.0493 168.53 34.516C168.968 34.9733 169.547 35.202 170.266 35.202ZM178.514 36.196C177.665 36.196 176.946 36 176.358 35.608C175.779 35.216 175.429 34.5953 175.308 33.746L176.358 33.508C176.433 33.956 176.573 34.3107 176.778 34.572C176.983 34.824 177.235 35.006 177.534 35.118C177.842 35.2207 178.169 35.272 178.514 35.272C179.027 35.272 179.433 35.1693 179.732 34.964C180.031 34.7587 180.18 34.4833 180.18 34.138C180.18 33.7833 180.035 33.536 179.746 33.396C179.466 33.2467 179.079 33.1253 178.584 33.032L178.01 32.934C177.571 32.8593 177.17 32.7427 176.806 32.584C176.442 32.4253 176.153 32.2107 175.938 31.94C175.723 31.6693 175.616 31.3287 175.616 30.918C175.616 30.302 175.854 29.8213 176.33 29.476C176.806 29.1307 177.436 28.958 178.22 28.958C178.995 28.958 179.62 29.1353 180.096 29.49C180.581 29.8353 180.894 30.3253 181.034 30.96L179.998 31.226C179.914 30.7313 179.713 30.386 179.396 30.19C179.079 29.9847 178.687 29.882 178.22 29.882C177.753 29.882 177.385 29.9707 177.114 30.148C176.843 30.316 176.708 30.568 176.708 30.904C176.708 31.2307 176.834 31.4733 177.086 31.632C177.347 31.7813 177.693 31.8933 178.122 31.968L178.696 32.066C179.181 32.15 179.615 32.2667 179.998 32.416C180.39 32.556 180.698 32.7613 180.922 33.032C181.155 33.3027 181.272 33.6573 181.272 34.096C181.272 34.768 181.02 35.286 180.516 35.65C180.021 36.014 179.354 36.196 178.514 36.196ZM186.735 36V26.2H187.841V36H186.735ZM193.33 36.196C192.64 36.196 192.028 36.0513 191.496 35.762C190.974 35.4727 190.563 35.0667 190.264 34.544C189.975 34.012 189.83 33.3867 189.83 32.668V32.486C189.83 31.7767 189.975 31.156 190.264 30.624C190.563 30.092 190.974 29.6813 191.496 29.392C192.028 29.1027 192.64 28.958 193.33 28.958C194.021 28.958 194.628 29.1027 195.15 29.392C195.682 29.6813 196.093 30.092 196.382 30.624C196.681 31.156 196.83 31.7767 196.83 32.486V32.668C196.83 33.3867 196.681 34.012 196.382 34.544C196.093 35.0667 195.682 35.4727 195.15 35.762C194.628 36.0513 194.021 36.196 193.33 36.196ZM193.33 35.202C194.058 35.202 194.637 34.9733 195.066 34.516C195.505 34.0493 195.724 33.424 195.724 32.64V32.514C195.724 31.73 195.505 31.1093 195.066 30.652C194.637 30.1853 194.058 29.952 193.33 29.952C192.612 29.952 192.033 30.1853 191.594 30.652C191.156 31.1093 190.936 31.73 190.936 32.514V32.64C190.936 33.424 191.156 34.0493 191.594 34.516C192.033 34.9733 192.612 35.202 193.33 35.202ZM201.579 36.196C200.729 36.196 200.011 36 199.423 35.608C198.844 35.216 198.494 34.5953 198.373 33.746L199.423 33.508C199.497 33.956 199.637 34.3107 199.843 34.572C200.048 34.824 200.3 35.006 200.599 35.118C200.907 35.2207 201.233 35.272 201.579 35.272C202.092 35.272 202.498 35.1693 202.797 34.964C203.095 34.7587 203.245 34.4833 203.245 34.138C203.245 33.7833 203.1 33.536 202.811 33.396C202.531 33.2467 202.143 33.1253 201.649 33.032L201.075 32.934C200.636 32.8593 200.235 32.7427 199.871 32.584C199.507 32.4253 199.217 32.2107 199.003 31.94C198.788 31.6693 198.681 31.3287 198.681 30.918C198.681 30.302 198.919 29.8213 199.395 29.476C199.871 29.1307 200.501 28.958 201.285 28.958C202.059 28.958 202.685 29.1353 203.161 29.49C203.646 29.8353 203.959 30.3253 204.099 30.96L203.063 31.226C202.979 30.7313 202.778 30.386 202.461 30.19C202.143 29.9847 201.751 29.882 201.285 29.882C200.818 29.882 200.449 29.9707 200.179 30.148C199.908 30.316 199.773 30.568 199.773 30.904C199.773 31.2307 199.899 31.4733 200.151 31.632C200.412 31.7813 200.757 31.8933 201.187 31.968L201.761 32.066C202.246 32.15 202.68 32.2667 203.063 32.416C203.455 32.556 203.763 32.7613 203.987 33.032C204.22 33.3027 204.337 33.6573 204.337 34.096C204.337 34.768 204.085 35.286 203.581 35.65C203.086 36.014 202.419 36.196 201.579 36.196ZM6.83218e-06 59.8V58.82H0.952007C1.23201 58.82 1.37201 58.68 1.37201 58.4V50.154H2.47801V58.596C2.47801 58.9693 2.37067 59.2633 2.15601 59.478C1.95067 59.6927 1.65201 59.8 1.26001 59.8H6.83218e-06ZM1.93201 49.09C1.68934 49.09 1.48401 49.0107 1.31601 48.852C1.15734 48.6933 1.07801 48.4927 1.07801 48.25C1.07801 47.998 1.15734 47.7927 1.31601 47.634C1.48401 47.4753 1.68934 47.396 1.93201 47.396C2.17467 47.396 2.37534 47.4753 2.53401 47.634C2.69267 47.7927 2.77201 47.998 2.77201 48.25C2.77201 48.4927 2.69267 48.6933 2.53401 48.852C2.37534 49.0107 2.17467 49.09 1.93201 49.09ZM7.42099 57.126C6.92632 57.126 6.46899 57.0187 6.04899 56.804C5.63832 56.5893 5.31166 56.272 5.06899 55.852C4.83566 55.4227 4.71899 54.9047 4.71899 54.298V50.154H5.82499V54.214C5.82499 54.8953 5.99299 55.39 6.32899 55.698C6.67432 56.006 7.13632 56.16 7.71499 56.16C8.36832 56.16 8.90499 55.9453 9.32499 55.516C9.74499 55.0867 9.95499 54.4473 9.95499 53.598V50.154H11.061V57H9.98299V55.838H9.78699C9.63766 56.1647 9.38099 56.4633 9.01699 56.734C8.65299 56.9953 8.12099 57.126 7.42099 57.126ZM13.0393 53.612V53.416C13.0393 52.6973 13.1839 52.0813 13.4733 51.568C13.7626 51.0547 14.1546 50.658 14.6493 50.378C15.1439 50.098 15.6853 49.958 16.2733 49.958C16.9919 49.958 17.5426 50.098 17.9253 50.378C18.3173 50.6487 18.6066 50.952 18.7933 51.288H18.9893V50.154H20.0393V58.596C20.0393 58.9693 19.9366 59.2633 19.7313 59.478C19.5259 59.6927 19.2273 59.8 18.8353 59.8H14.1873V58.82H18.5413C18.8213 58.82 18.9613 58.68 18.9613 58.4V55.796H18.7653C18.6533 56.0013 18.4946 56.202 18.2893 56.398C18.0839 56.594 17.8179 56.7573 17.4913 56.888C17.1646 57.0093 16.7586 57.07 16.2733 57.07C15.6853 57.07 15.1439 56.93 14.6493 56.65C14.1546 56.37 13.7626 55.9733 13.4733 55.46C13.1839 54.9373 13.0393 54.3213 13.0393 53.612ZM16.5673 56.09C17.2766 56.09 17.8506 55.866 18.2893 55.418C18.7373 54.97 18.9613 54.354 18.9613 53.57V53.458C18.9613 52.6647 18.7373 52.0487 18.2893 51.61C17.8506 51.162 17.2766 50.938 16.5673 50.938C15.8673 50.938 15.2886 51.162 14.8313 51.61C14.3833 52.0487 14.1593 52.6647 14.1593 53.458V53.57C14.1593 54.354 14.3833 54.97 14.8313 55.418C15.2886 55.866 15.8673 56.09 16.5673 56.09ZM24.4577 57.196C23.9817 57.196 23.5477 57.112 23.1557 56.944C22.7637 56.776 22.4557 56.5333 22.2317 56.216C22.0077 55.8987 21.8957 55.5113 21.8957 55.054C21.8957 54.5873 22.0077 54.2047 22.2317 53.906C22.4557 53.598 22.7637 53.3693 23.1557 53.22C23.5477 53.0613 23.9863 52.982 24.4717 52.982H26.7817V52.478C26.7817 51.9927 26.637 51.61 26.3477 51.33C26.0677 51.05 25.6477 50.91 25.0877 50.91C24.537 50.91 24.1077 51.0453 23.7997 51.316C23.4917 51.5773 23.2817 51.932 23.1697 52.38L22.1337 52.044C22.2457 51.6613 22.423 51.316 22.6657 51.008C22.9083 50.6907 23.2303 50.4387 23.6317 50.252C24.0423 50.056 24.5323 49.958 25.1017 49.958C25.979 49.958 26.6603 50.1867 27.1457 50.644C27.631 51.092 27.8737 51.7267 27.8737 52.548V55.642C27.8737 55.922 28.0043 56.062 28.2657 56.062H28.8957V57H27.9297C27.6217 57 27.3743 56.916 27.1877 56.748C27.001 56.5707 26.9077 56.3373 26.9077 56.048V55.978H26.7397C26.637 56.1553 26.497 56.342 26.3197 56.538C26.1517 56.7247 25.9183 56.8787 25.6197 57C25.321 57.1307 24.9337 57.196 24.4577 57.196ZM24.5837 56.244C25.237 56.244 25.7643 56.0527 26.1657 55.67C26.5763 55.278 26.7817 54.732 26.7817 54.032V53.878H24.5137C24.075 53.878 23.711 53.976 23.4217 54.172C23.1417 54.3587 23.0017 54.6433 23.0017 55.026C23.0017 55.4087 23.1463 55.7073 23.4357 55.922C23.7343 56.1367 24.117 56.244 24.5837 56.244ZM33.117 57.196C32.529 57.196 31.9877 57.056 31.493 56.776C30.9983 56.496 30.6063 56.09 30.317 55.558C30.0277 55.026 29.883 54.396 29.883 53.668V53.486C29.883 52.758 30.0277 52.1327 30.317 51.61C30.6063 51.078 30.9937 50.672 31.479 50.392C31.9737 50.1027 32.5197 49.958 33.117 49.958C33.593 49.958 33.9943 50.0233 34.321 50.154C34.657 50.2753 34.9277 50.434 35.133 50.63C35.3383 50.8167 35.497 51.0173 35.609 51.232H35.805V47.2H36.911V57H35.833V55.866H35.637C35.4503 56.2113 35.161 56.5193 34.769 56.79C34.377 57.0607 33.8263 57.196 33.117 57.196ZM33.411 56.216C34.1203 56.216 34.6943 55.992 35.133 55.544C35.581 55.0867 35.805 54.452 35.805 53.64V53.514C35.805 52.702 35.581 52.072 35.133 51.624C34.6943 51.1667 34.1203 50.938 33.411 50.938C32.711 50.938 32.1323 51.1667 31.675 51.624C31.227 52.072 31.003 52.702 31.003 53.514V53.64C31.003 54.452 31.227 55.0867 31.675 55.544C32.1323 55.992 32.711 56.216 33.411 56.216ZM42.3928 57.196C41.7021 57.196 41.0908 57.0513 40.5588 56.762C40.0361 56.4727 39.6254 56.0667 39.3268 55.544C39.0374 55.012 38.8928 54.3867 38.8928 53.668V53.486C38.8928 52.7767 39.0374 52.156 39.3268 51.624C39.6254 51.092 40.0361 50.6813 40.5588 50.392C41.0908 50.1027 41.7021 49.958 42.3928 49.958C43.0834 49.958 43.6901 50.1027 44.2128 50.392C44.7448 50.6813 45.1554 51.092 45.4448 51.624C45.7434 52.156 45.8928 52.7767 45.8928 53.486V53.668C45.8928 54.3867 45.7434 55.012 45.4448 55.544C45.1554 56.0667 44.7448 56.4727 44.2128 56.762C43.6901 57.0513 43.0834 57.196 42.3928 57.196ZM42.3928 56.202C43.1208 56.202 43.6994 55.9733 44.1288 55.516C44.5674 55.0493 44.7868 54.424 44.7868 53.64V53.514C44.7868 52.73 44.5674 52.1093 44.1288 51.652C43.6994 51.1853 43.1208 50.952 42.3928 50.952C41.6741 50.952 41.0954 51.1853 40.6568 51.652C40.2181 52.1093 39.9988 52.73 39.9988 53.514V53.64C39.9988 54.424 40.2181 55.0493 40.6568 55.516C41.0954 55.9733 41.6741 56.202 42.3928 56.202ZM47.8831 57V50.154H48.9611V50.994H49.1571C49.2784 50.6953 49.4651 50.476 49.7171 50.336C49.9691 50.196 50.3004 50.126 50.7111 50.126H51.5231V51.134H50.6411C50.1464 51.134 49.7451 51.274 49.4371 51.554C49.1384 51.8247 48.9891 52.2493 48.9891 52.828V57H47.8831ZM56.0503 57.196C55.3597 57.196 54.753 57.0513 54.2303 56.762C53.7077 56.4633 53.3017 56.048 53.0123 55.516C52.723 54.984 52.5783 54.368 52.5783 53.668V53.5C52.5783 52.7907 52.723 52.17 53.0123 51.638C53.3017 51.106 53.703 50.6953 54.2163 50.406C54.7297 50.1073 55.3177 49.958 55.9803 49.958C56.6243 49.958 57.1937 50.098 57.6883 50.378C58.183 50.6487 58.5703 51.0407 58.8503 51.554C59.1303 52.0673 59.2703 52.6693 59.2703 53.36V53.864H53.6843C53.7123 54.6013 53.9503 55.18 54.3983 55.6C54.8463 56.0107 55.4063 56.216 56.0783 56.216C56.6663 56.216 57.119 56.0807 57.4363 55.81C57.7537 55.5393 57.9963 55.2173 58.1643 54.844L59.1163 55.306C58.9763 55.5953 58.7803 55.8847 58.5283 56.174C58.2857 56.4633 57.9637 56.706 57.5623 56.902C57.1703 57.098 56.6663 57.196 56.0503 57.196ZM53.6983 52.954H58.1503C58.113 52.3193 57.8937 51.8247 57.4923 51.47C57.1003 51.1153 56.5963 50.938 55.9803 50.938C55.355 50.938 54.8417 51.1153 54.4403 51.47C54.039 51.8247 53.7917 52.3193 53.6983 52.954ZM63.9575 57.196C63.1081 57.196 62.3895 57 61.8015 56.608C61.2228 56.216 60.8728 55.5953 60.7515 54.746L61.8015 54.508C61.8761 54.956 62.0161 55.3107 62.2215 55.572C62.4268 55.824 62.6788 56.006 62.9775 56.118C63.2855 56.2207 63.6121 56.272 63.9575 56.272C64.4708 56.272 64.8768 56.1693 65.1755 55.964C65.4741 55.7587 65.6235 55.4833 65.6235 55.138C65.6235 54.7833 65.4788 54.536 65.1895 54.396C64.9095 54.2467 64.5221 54.1253 64.0275 54.032L63.4535 53.934C63.0148 53.8593 62.6135 53.7427 62.2495 53.584C61.8855 53.4253 61.5961 53.2107 61.3815 52.94C61.1668 52.6693 61.0595 52.3287 61.0595 51.918C61.0595 51.302 61.2975 50.8213 61.7735 50.476C62.2495 50.1307 62.8795 49.958 63.6635 49.958C64.4381 49.958 65.0635 50.1353 65.5395 50.49C66.0248 50.8353 66.3375 51.3253 66.4775 51.96L65.4415 52.226C65.3575 51.7313 65.1568 51.386 64.8395 51.19C64.5221 50.9847 64.1301 50.882 63.6635 50.882C63.1968 50.882 62.8281 50.9707 62.5575 51.148C62.2868 51.316 62.1515 51.568 62.1515 51.904C62.1515 52.2307 62.2775 52.4733 62.5295 52.632C62.7908 52.7813 63.1361 52.8933 63.5655 52.968L64.1395 53.066C64.6248 53.15 65.0588 53.2667 65.4415 53.416C65.8335 53.556 66.1415 53.7613 66.3655 54.032C66.5988 54.3027 66.7155 54.6573 66.7155 55.096C66.7155 55.768 66.4635 56.286 65.9595 56.65C65.4648 57.014 64.7975 57.196 63.9575 57.196ZM69.1843 57.196C68.9136 57.196 68.685 57.1073 68.4983 56.93C68.321 56.7527 68.2323 56.524 68.2323 56.244C68.2323 55.964 68.321 55.7353 68.4983 55.558C68.685 55.3807 68.9136 55.292 69.1843 55.292C69.4643 55.292 69.693 55.3807 69.8703 55.558C70.0476 55.7353 70.1363 55.964 70.1363 56.244C70.1363 56.524 70.0476 56.7527 69.8703 56.93C69.693 57.1073 69.4643 57.196 69.1843 57.196Z" fill="#8FADCC"/>
</svg>
