<?xml version="1.0" encoding="UTF-8" standalone="no"?>
<!-- Generator: Gravit.io -->
<svg xmlns="http://www.w3.org/2000/svg" xmlns:xlink="http://www.w3.org/1999/xlink" style="isolation:isolate" viewBox="0 0 680 680" width="680pt" height="680pt"><path d=" M 16.5 340 C 16.5 161.455 161.455 16.5 340 16.5 C 518.544 16.5 663.5 161.455 663.5 340 C 663.5 518.544 518.544 663.5 340 663.5 C 161.455 663.5 16.5 518.544 16.5 340 Z  M 48.5 340 C 48.49 320.27 50.48 300.58 54.43 281.25 C 58.27 262.52 63.95 244.22 71.4 226.61 C 86.08 191.98 107.31 160.51 133.92 133.92 C 160.51 107.31 191.98 86.08 226.61 71.4 C 244.22 63.95 262.52 58.27 281.25 54.43 C 300.59 50.48 320.27 48.49 340 48.5 C 359.73 48.49 379.41 50.48 398.75 54.43 C 417.48 58.27 435.78 63.95 453.39 71.4 C 488.02 86.08 519.49 107.31 546.08 133.92 C 572.69 160.51 593.92 191.98 608.6 226.61 C 616.05 244.22 621.73 262.52 625.57 281.25 C 629.52 300.59 631.51 320.27 631.5 340 C 631.51 359.73 629.52 379.41 625.57 398.75 C 621.73 417.48 616.05 435.78 608.6 453.39 C 593.92 488.02 572.69 519.49 546.08 546.08 C 519.49 572.69 488.02 593.92 453.39 608.6 C 435.78 616.05 417.48 621.73 398.75 625.57 C 379.41 629.52 359.73 631.51 340 631.5 C 320.27 631.51 300.59 629.52 281.25 625.57 C 262.52 621.73 244.22 616.05 226.61 608.6 C 191.98 593.92 160.51 572.69 133.92 546.08 C 107.31 519.49 86.08 488.02 71.4 453.39 C 63.95 435.78 58.27 417.48 54.43 398.75 C 50.48 379.41 48.49 359.73 48.5 340 Z " fill-rule="evenodd" fill="rgb(255,255,255)"/><path d=" M 317.54 539.5 L 248 499.35 L 178.46 459.2 C 178.46 459.2 178.46 459.2 178.46 459.2 C 176.86 458.27 175.33 457.21 173.9 456.04 C 172.41 454.82 171 453.5 169.68 452.09 C 166.95 449.16 164.56 445.92 162.57 442.44 C 160.55 438.97 158.94 435.29 157.77 431.45 C 157.21 429.61 156.77 427.73 156.46 425.82 C 156.16 424 156.01 422.15 156 420.3 C 156 420.3 156 420.3 156 420.3 L 156 340 L 156 259.7 C 156 251.82 158.08 244.07 162.02 237.24 C 165.96 230.41 171.63 224.74 178.46 220.8 L 248 180.65 L 317.54 140.5 C 317.54 140.5 317.54 140.5 317.54 140.5 C 319.15 139.58 320.82 138.79 322.56 138.14 C 324.36 137.45 326.21 136.89 328.09 136.46 C 331.99 135.56 335.99 135.11 340 135.12 C 344.01 135.11 348.01 135.56 351.91 136.46 C 353.79 136.89 355.64 137.45 357.44 138.14 C 359.18 138.79 360.85 139.58 362.46 140.5 C 362.46 140.5 362.46 140.5 362.46 140.5 L 432 180.65 L 501.54 220.8 C 501.54 220.8 501.54 220.8 501.54 220.8 C 503.14 221.73 504.67 222.79 506.1 223.96 C 507.59 225.18 509 226.5 510.32 227.91 C 513.05 230.84 515.44 234.08 517.43 237.56 C 519.45 241.03 521.06 244.71 522.23 248.55 C 522.79 250.39 523.23 252.27 523.54 254.18 C 523.84 256 523.99 257.85 524 259.7 C 524 259.7 524 259.7 524 259.7 L 524 340 L 524 420.3 C 524 428.18 521.92 435.93 517.98 442.76 C 514.04 449.59 508.37 455.26 501.54 459.2 L 432 499.35 L 362.46 539.5 C 362.46 539.5 362.46 539.5 362.46 539.5 C 360.85 540.42 359.18 541.21 357.44 541.86 C 355.64 542.55 353.79 543.11 351.91 543.54 C 348.01 544.44 344.01 544.89 340 544.88 C 335.99 544.89 331.99 544.44 328.09 543.54 C 326.21 543.11 324.36 542.55 322.56 541.86 C 320.82 541.21 319.15 540.42 317.54 539.5 C 317.54 539.5 317.54 539.5 317.54 539.5 Z  M 330.68 516.63 L 261.19 476.51 L 191.69 436.38 C 191.31 436.16 190.95 435.91 190.61 435.63 C 190.02 435.15 189.47 434.63 188.96 434.08 C 187.59 432.62 186.4 430.99 185.41 429.25 C 184.4 427.52 183.59 425.68 183 423.76 C 182.78 423.04 182.61 422.31 182.49 421.57 C 182.42 421.13 182.38 420.68 182.38 420.23 L 182.38 340 L 182.38 259.7 C 182.38 256.45 183.24 253.25 184.87 250.42 C 186.49 247.61 188.83 245.27 191.64 243.65 C 191.64 243.65 191.65 243.65 191.65 243.64 L 261.19 203.49 L 330.68 163.37 C 331.07 163.15 331.47 162.96 331.9 162.81 C 332.58 162.55 333.27 162.33 333.99 162.17 C 335.91 161.72 337.88 161.5 339.85 161.5 L 340 161.5 L 340.15 161.5 C 342.12 161.5 344.09 161.72 346.01 162.17 C 346.73 162.33 347.42 162.55 348.1 162.81 C 348.53 162.96 348.93 163.15 349.32 163.37 L 418.81 203.49 L 488.31 243.62 C 488.69 243.84 489.05 244.09 489.39 244.37 C 489.98 244.85 490.53 245.37 491.04 245.92 C 492.41 247.38 493.6 249.01 494.59 250.75 C 495.6 252.48 496.41 254.32 497 256.24 C 497.22 256.96 497.39 257.69 497.51 258.43 C 497.58 258.87 497.62 259.32 497.62 259.77 L 497.62 340 L 497.62 420.3 C 497.62 423.55 496.76 426.75 495.13 429.58 C 493.51 432.39 491.17 434.73 488.36 436.35 C 488.36 436.35 488.35 436.35 488.35 436.36 L 418.81 476.51 L 349.32 516.63 C 348.93 516.85 348.53 517.04 348.1 517.19 C 347.42 517.45 346.73 517.67 346.01 517.83 C 344.09 518.28 342.12 518.5 340.15 518.5 L 340 518.5 L 339.85 518.5 C 337.88 518.5 335.91 518.28 333.99 517.83 C 333.27 517.67 332.58 517.45 331.9 517.19 C 331.47 517.04 331.07 516.85 330.68 516.63 Z " fill-rule="evenodd" fill="rgb(255,255,255)"/><path d=" M 523 268.044 C 522.212 267.837 521.416 267.651 520.613 267.486 L 520.613 267.486 L 520.613 267.486 C 521.488 264.235 521.97 260.991 521.97 257.897 L 521.97 251.415 C 519.146 239.545 510.838 227.323 501.04 221.666 L 495.59 218.52 L 495.59 257.9 C 495.59 264.16 492.24 269.96 486.82 273.09 L 417.28 313.24 L 378.487 335.637 L 360.98 325.53 C 360.64 325.33 360.33 325.11 360.02 324.86 C 359.48 324.41 358.96 323.93 358.48 323.42 C 357.16 322 356.02 320.44 355.06 318.76 C 354.08 317.09 353.3 315.31 352.74 313.46 C 352.53 312.79 352.37 312.1 352.26 311.41 C 352.19 311.02 352.16 310.64 352.16 310.25 L 352.16 230.01 L 352.16 149.71 C 352.16 145.64 353.576 141.765 356.071 138.702 C 345.01 134.835 330.658 135.313 320.422 140.147 C 321.333 141.271 322.16 142.47 322.88 143.73 C 323.86 145.4 324.64 147.17 325.2 149.02 C 325.41 149.7 325.57 150.38 325.68 151.08 C 325.74 151.46 325.78 151.85 325.78 152.24 L 325.78 232.48 L 325.78 312.78 C 325.78 319.04 322.43 324.84 317.01 327.97 L 301.592 336.872 L 301.592 336.872 L 260.66 313.24 L 191.17 273.12 C 190.83 272.92 190.51 272.7 190.21 272.45 C 189.67 272.01 189.15 271.52 188.67 271.01 C 187.35 269.59 186.21 268.03 185.25 266.35 C 184.27 264.68 183.49 262.9 182.92 261.06 C 182.72 260.38 182.56 259.69 182.45 259 C 182.38 258.62 182.35 258.23 182.35 257.84 L 182.35 219.709 L 178.96 221.666 C 166.84 228.664 157 245.707 157 259.702 L 157 266.173 C 157.371 267.727 157.836 269.286 158.387 270.836 L 158.387 270.836 C 157.92 270.958 157.458 271.087 157 271.223 L 157 300.478 L 162.4 297.36 C 162.74 297.17 163.09 297 163.45 296.87 C 164.11 296.62 164.79 296.41 165.47 296.25 C 167.36 295.82 169.29 295.61 171.22 295.62 C 173.15 295.61 175.08 295.82 176.97 296.25 C 177.65 296.41 178.33 296.62 178.99 296.87 C 179.35 297 179.7 297.17 180.04 297.36 L 249.53 337.48 L 282.384 356.449 L 301.357 367.465 L 301.411 367.434 L 319.07 377.63 C 324.49 380.76 327.84 386.56 327.84 392.82 L 327.84 473.12 L 327.84 542.455 C 336.286 544.525 346.002 544.339 354.22 541.897 L 354.22 470.65 L 354.22 390.41 C 354.22 390.02 354.26 389.63 354.32 389.25 C 354.43 388.55 354.59 387.86 354.8 387.19 C 355.36 385.34 356.14 383.57 357.12 381.9 C 358.08 380.22 359.23 378.65 360.54 377.24 C 361.02 376.72 361.54 376.24 362.09 375.8 C 362.39 375.55 362.71 375.33 363.04 375.13 L 432.53 335.01 L 502.02 294.89 C 502.36 294.7 502.71 294.53 503.07 294.4 C 503.73 294.15 504.41 293.94 505.09 293.78 C 506.98 293.35 508.91 293.13 510.84 293.15 C 512.77 293.13 514.7 293.35 516.59 293.78 C 517.27 293.94 517.95 294.15 518.61 294.4 C 518.97 294.53 519.32 294.7 519.66 294.89 L 523 296.818 L 523 268.044 Z  M 520.862 432.467 C 509.571 435.229 496.019 433.949 486.82 428.639 L 486.82 428.639 L 417.28 388.49 L 398.198 377.472 L 424.544 362.229 L 430.47 365.65 L 499.96 405.77 L 499.96 405.77 C 500.3 405.96 500.65 406.12 501.01 406.26 C 501.67 406.51 502.35 406.71 503.03 406.87 C 504.92 407.31 506.85 407.52 508.78 407.51 C 510.71 407.52 512.64 407.31 514.53 406.87 C 515.21 406.71 515.89 406.51 516.55 406.26 C 516.91 406.12 517.26 405.96 517.6 405.77 L 523 402.652 L 523 420.298 C 523 424.211 522.231 428.363 520.862 432.467 Z  M 157 406.312 L 160.34 408.24 L 160.34 408.24 C 160.68 408.43 161.03 408.6 161.39 408.73 C 162.05 408.98 162.73 409.19 163.41 409.35 C 165.3 409.78 167.23 409.99 169.16 409.98 C 171.09 409.99 173.02 409.78 174.91 409.35 C 175.59 409.19 176.27 408.98 176.93 408.73 C 177.29 408.6 177.64 408.43 177.98 408.24 L 247.47 368.12 L 255.875 363.267 L 282.224 378.512 L 260.659 390.963 L 191.119 431.111 C 182.785 435.923 170.878 437.426 160.317 435.607 C 158.214 430.507 157 425.214 157 420.298 L 157 406.312 Z  M 352.112 350.865 L 347.79 353.36 C 347.45 353.55 347.1 353.71 346.74 353.85 C 346.08 354.1 345.4 354.31 344.72 354.47 C 342.83 354.9 340.9 355.11 338.97 355.1 C 337.04 355.11 335.11 354.9 333.22 354.47 C 332.54 354.31 331.86 354.1 331.2 353.85 C 330.84 353.71 330.49 353.55 330.15 353.36 L 330.15 353.36 L 330.15 353.36 L 327.969 352.101 L 327.969 352.101 L 330.199 350.814 C 333.763 348.756 337.131 345.828 340.104 342.36 C 342.484 344.749 345.057 346.791 347.74 348.341 L 352.112 350.865 L 352.112 350.865 Z " fill-rule="evenodd" fill="rgb(255,255,255)"/></svg>