<?xml version="1.0" encoding="UTF-8"?>
<svg id="Layer_2" xmlns="http://www.w3.org/2000/svg" viewBox="0 0 1000 1000">
  <defs>
    <style>
      .cls-1 {
        fill: #fff;
      }
    </style>
  </defs>
  <g id="Layer_1-2" data-name="Layer_1">
    <path class="cls-1" d="M500,50c60.77,0,119.7,11.89,175.15,35.34,53.58,22.66,101.71,55.12,143.05,96.46,41.34,41.34,73.8,89.47,96.46,143.05,23.45,55.45,35.34,114.37,35.34,175.14s-11.89,119.7-35.34,175.15c-22.66,53.58-55.12,101.71-96.46,143.05-41.34,41.34-89.47,73.8-143.05,96.46-55.45,23.45-114.37,35.34-175.15,35.34s-119.7-11.89-175.14-35.34c-53.58-22.66-101.71-55.12-143.05-96.46-41.34-41.34-73.8-89.47-96.46-143.05-23.45-55.45-35.34-114.37-35.34-175.15s11.89-119.7,35.34-175.14c22.66-53.58,55.12-101.71,96.46-143.05,41.34-41.34,89.47-73.8,143.05-96.46,55.45-23.45,114.37-35.34,175.14-35.34M500,0C223.86,0,0,223.86,0,500s223.86,500,500,500,500-223.86,500-500S776.14,0,500,0h0Z"/>
    <g>
      <polygon class="cls-1" points="717.86 374.22 500 248.44 282.14 374.22 282.14 625.78 500 751.56 500 500 717.86 374.22"/>
      <polygon class="cls-1" points="500 751.56 717.86 625.78 717.86 374.22 500 751.56"/>
    </g>
  </g>
</svg>